<svg xmlns="http://www.w3.org/2000/svg" width="44.7mm" height="14mm" viewBox="0 0 126.7 39.7"><defs><style>.cls-1{fill:#15609d;}.cls-2{fill:#2e9ad5;}.cls-3{fill:#263440;}.cls-4{fill:#3599c0;}.cls-5{fill:#fbba52;}</style></defs><g id="Layer_2" data-name="Layer 2"><g id="Print_1" data-name="Print 1"><path class="cls-1" d="M32.1,0H49.9C59.7,0,64,2.9,64,10.8v5.8c0,7.6-3.1,11.2-12.8,11.2H32.1Zm9.4,21.3h8.2c3.4,0,4.7-1.8,4.7-4.7V10.8c0-3.6-1.4-4.4-4.7-4.4H41.5Z"/><path class="cls-1" d="M76.9,23l-1.8,4.8H65.4L75.9,0H90.1l10.7,27.8H91.3L89.4,23ZM83.2,5.6h-.1l-4.2,12h8.7Z"/><path class="cls-1" d="M117.3,27.8h-9.4V6.4h-9V0h27.8V6.4h-9.4Z"/><path class="cls-2" d="M32.1,39.3V33.9H35l.8.4a3.5,3.5,0,0,1,.6.9,5.1,5.1,0,0,1,.2,1.3,3.7,3.7,0,0,1-.1,1.1l-.4.8-.5.5-.6.2H32.1Zm.8-.6h1.9l.5-.3a1.6,1.6,0,0,0,.4-.7,3,3,0,0,0,.2-1,2.3,2.3,0,0,0-.3-1.3,1.3,1.3,0,0,0-.7-.6h-2Z"/><path class="cls-2" d="M37.7,39.3V33.9h.7v5.4Z"/><path class="cls-2" d="M39.1,39.3l2.1-5.4H42l2.2,5.4h-.8l-.7-1.6H40.5l-.6,1.6Zm1.6-2.2h1.8L42,35.6a7.6,7.6,0,0,1-.4-1.1l-.3,1Z"/><path class="cls-2" d="M47.3,37.2v-.6h2.3v2a6,6,0,0,1-1.1.6l-1.1.2a3.7,3.7,0,0,1-1.5-.3l-1-1a3.2,3.2,0,0,1-.3-1.4,3.3,3.3,0,0,1,.3-1.5,2.4,2.4,0,0,1,1-1,2.3,2.3,0,0,1,1.4-.4l1.1.2a2,2,0,0,1,.7.6,2,2,0,0,1,.4.8l-.6.2a1.6,1.6,0,0,0-.3-.6,1,1,0,0,0-.5-.4l-.8-.2-.8.2a.9.9,0,0,0-.6.4.5.5,0,0,0-.3.5,2.3,2.3,0,0,0-.3,1.1,2.1,2.1,0,0,0,.3,1.2,1.6,1.6,0,0,0,.7.7,1.9,1.9,0,0,0,1,.3l.9-.2.7-.4v-1Z"/><path class="cls-2" d="M50.7,39.3V33.9h.7l2.8,4.3V33.9h.7v5.4h-.7l-2.8-4.2v4.2Z"/><path class="cls-2" d="M55.9,36.7a2.9,2.9,0,0,1,.8-2.1,2.3,2.3,0,0,1,1.8-.8,3.3,3.3,0,0,1,1.4.4,2.2,2.2,0,0,1,.9,1,3.2,3.2,0,0,1,.3,1.4,3.3,3.3,0,0,1-.3,1.5,3.2,3.2,0,0,1-1,1,2.8,2.8,0,0,1-1.3.3,2.3,2.3,0,0,1-1.4-.4,2.2,2.2,0,0,1-.9-1A2.8,2.8,0,0,1,55.9,36.7Zm.8,0a1.7,1.7,0,0,0,.5,1.5,1.7,1.7,0,0,0,2.6,0,2,2,0,0,0,.6-1.6,2,2,0,0,0-.3-1.1,1.6,1.6,0,0,0-.6-.8,1.7,1.7,0,0,0-1-.3,1.8,1.8,0,0,0-1.3.6C56.8,35.3,56.7,35.9,56.7,36.7Z"/><path class="cls-2" d="M61.8,37.6h.7a1.4,1.4,0,0,0,.2.7,1,1,0,0,0,.5.4l.9.2h.7a.8.8,0,0,0,.4-.4.8.8,0,0,0,.2-.4.7.7,0,0,0-.1-.5l-.5-.3-1-.3-1-.3a1,1,0,0,1-.6-.5,1.4,1.4,0,0,1-.2-.7,1.9,1.9,0,0,1,.2-.7,1.3,1.3,0,0,1,.7-.6l1-.2L65,34a2,2,0,0,1,.7.6,1.9,1.9,0,0,1,.2.8h-.7a1.1,1.1,0,0,0-.3-.8l-1-.2c-.4,0-.7,0-.9.2a.9.9,0,0,0-.3.6c0,.2.1.3.2.5l1.1.3,1.2.4a1.8,1.8,0,0,1,.7.5,2.4,2.4,0,0,1,.2.8,1.1,1.1,0,0,1-.3.8,1.1,1.1,0,0,1-.7.6l-1,.2-1.2-.2a1.7,1.7,0,0,1-.8-.6A1.9,1.9,0,0,1,61.8,37.6Z"/><path class="cls-2" d="M68.5,39.3V34.6H66.7v-.7H71v.7H69.2v4.7Z"/><path class="cls-2" d="M71.8,39.3V33.9h.8v5.4Z"/><path class="cls-2" d="M77.9,38.7a3.1,3.1,0,0,0,1,.5l-.3.5-1.1-.6a3.1,3.1,0,0,1-1.3.3,3.2,3.2,0,0,1-1.4-.3,2.8,2.8,0,0,1-.9-1,3.7,3.7,0,0,1-.3-1.5,3.2,3.2,0,0,1,.3-1.4,1.8,1.8,0,0,1,.9-1,2.3,2.3,0,0,1,1.4-.4,2.8,2.8,0,0,1,1.3.4,2.2,2.2,0,0,1,.9,1,3.2,3.2,0,0,1,.3,1.4,2.2,2.2,0,0,1-.2,1.2A1.5,1.5,0,0,1,77.9,38.7Zm-1.5-.9,1,.5a2.1,2.1,0,0,0,.6-1.7,3.6,3.6,0,0,0-.2-1.1,2.7,2.7,0,0,0-.7-.8,1.4,1.4,0,0,0-.9-.3,1.5,1.5,0,0,0-1.3.6,2.1,2.1,0,0,0-.6,1.6,2.3,2.3,0,0,0,.5,1.6,1.8,1.8,0,0,0,1.4.6h.7l-.7-.4Z"/><path class="cls-2" d="M83.3,33.9H84V37a3.9,3.9,0,0,1-.2,1.3,1.1,1.1,0,0,1-.7.8,2.1,2.1,0,0,1-1.2.3l-1.3-.2a1.6,1.6,0,0,1-.6-.8,2.6,2.6,0,0,1-.3-1.4V33.9h.8V37a3.1,3.1,0,0,0,.1,1.1,1,1,0,0,0,.4.5l.8.2a1.2,1.2,0,0,0,1.1-.4c.3-.2.4-.7.4-1.4Z"/><path class="cls-2" d="M85.2,39.3V33.9h3.9v.7H85.9v1.6h3v.6h-3v1.9h3.3v.6Z"/><path class="cls-2" d="M91.4,39.3l2-5.4h.8l2.2,5.4h-.8L95,37.7H92.7l-.6,1.6Zm1.5-2.2h1.9l-.6-1.5a7.6,7.6,0,0,1-.4-1.1,3.8,3.8,0,0,1-.3,1Z"/><path class="cls-2" d="M100,39.3V34.6H98.2v-.7h4.3v.7h-1.8v4.7Z"/><path class="cls-2" d="M103.3,39.3V33.9h.8v5.4Z"/><path class="cls-2" d="M105.4,39.3V33.9h3.9v.7h-3.2v1.6h3v.6h-3v1.9h3.3v.6Z"/><path class="cls-2" d="M110.4,39.3V33.9h1.1l1.2,3.8c.2.4.2.7.3.8s.1-.4.3-.8l1.3-3.8h.9v5.4h-.7V34.8l-1.5,4.5h-.7l-1.5-4.6v4.6Z"/><path class="cls-2" d="M116.7,39.3V33.9h2.9l.6.2c.2.2.4.3.5.6a1.5,1.5,0,0,1,.1.7,1.9,1.9,0,0,1-.4,1.2,2.2,2.2,0,0,1-1.6.4h-1.4v2.2Zm.7-2.8h1.4a1.3,1.3,0,0,0,1-.3.8.8,0,0,0,.3-.7,1.4,1.4,0,0,0-.2-.6l-.4-.3h-2.1Z"/><path class="cls-2" d="M121.5,36.7a2.9,2.9,0,0,1,.8-2.1,2.3,2.3,0,0,1,1.8-.8,3.3,3.3,0,0,1,1.4.4,2.2,2.2,0,0,1,.9,1,3.2,3.2,0,0,1,.3,1.4,3.3,3.3,0,0,1-.3,1.5,2.4,2.4,0,0,1-1,1,2.8,2.8,0,0,1-1.3.3,2,2,0,0,1-1.3-.4,1.8,1.8,0,0,1-.9-1A2,2,0,0,1,121.5,36.7Zm.8,0a2.1,2.1,0,0,0,.5,1.5,1.8,1.8,0,0,0,1.3.6,1.5,1.5,0,0,0,1.3-.6,2,2,0,0,0,.6-1.6,2,2,0,0,0-.3-1.1,1.6,1.6,0,0,0-.6-.8,1.7,1.7,0,0,0-1-.3,1.8,1.8,0,0,0-1.3.6A2.5,2.5,0,0,0,122.3,36.7Z"/><path class="cls-3" d="M32.1,0H49.9C59.7,0,64,2.9,64,10.8v5.8c0,7.6-3.1,11.2-12.8,11.2H32.1Zm9.4,21.3h8.2c3.4,0,4.7-1.8,4.7-4.7V10.8c0-3.6-1.4-4.4-4.7-4.4H41.5Z"/><path class="cls-3" d="M76.9,23l-1.8,4.8H65.4L75.9,0H90.1l10.7,27.8H91.3L89.4,23ZM83.2,5.6h-.1l-4.2,12h8.7Z"/><path class="cls-3" d="M117.3,27.8h-9.4V6.4h-9V0h27.8V6.4h-9.4Z"/><path class="cls-4" d="M32.1,39.3V33.9H35l.8.4a3.5,3.5,0,0,1,.6.9,5.1,5.1,0,0,1,.2,1.3,3.7,3.7,0,0,1-.1,1.1l-.4.8-.5.5-.6.2H32.1Zm.8-.6h1.9l.5-.3a1.6,1.6,0,0,0,.4-.7,3,3,0,0,0,.2-1,2.3,2.3,0,0,0-.3-1.3,1.3,1.3,0,0,0-.7-.6h-2Z"/><path class="cls-4" d="M37.7,39.3V33.9h.7v5.4Z"/><path class="cls-4" d="M39.1,39.3l2.1-5.4H42l2.2,5.4h-.8l-.7-1.6H40.5l-.6,1.6Zm1.6-2.2h1.8L42,35.6a7.6,7.6,0,0,1-.4-1.1l-.3,1Z"/><path class="cls-4" d="M47.3,37.2v-.6h2.3v2a6,6,0,0,1-1.1.6l-1.1.2a3.7,3.7,0,0,1-1.5-.3l-1-1a3.2,3.2,0,0,1-.3-1.4,3.3,3.3,0,0,1,.3-1.5,2.4,2.4,0,0,1,1-1,2.3,2.3,0,0,1,1.4-.4l1.1.2a2,2,0,0,1,.7.6,2,2,0,0,1,.4.8l-.6.2a1.6,1.6,0,0,0-.3-.6,1,1,0,0,0-.5-.4l-.8-.2-.8.2a.9.9,0,0,0-.6.4.5.5,0,0,0-.3.5,2.3,2.3,0,0,0-.3,1.1,2.1,2.1,0,0,0,.3,1.2,1.6,1.6,0,0,0,.7.7,1.9,1.9,0,0,0,1,.3l.9-.2.7-.4v-1Z"/><path class="cls-4" d="M50.7,39.3V33.9h.7l2.8,4.3V33.9h.7v5.4h-.7l-2.8-4.2v4.2Z"/><path class="cls-4" d="M55.9,36.7a2.9,2.9,0,0,1,.8-2.1,2.3,2.3,0,0,1,1.8-.8,3.3,3.3,0,0,1,1.4.4,2.2,2.2,0,0,1,.9,1,3.2,3.2,0,0,1,.3,1.4,3.3,3.3,0,0,1-.3,1.5,3.2,3.2,0,0,1-1,1,2.8,2.8,0,0,1-1.3.3,2.3,2.3,0,0,1-1.4-.4,2.2,2.2,0,0,1-.9-1A2.8,2.8,0,0,1,55.9,36.7Zm.8,0a1.7,1.7,0,0,0,.5,1.5,1.7,1.7,0,0,0,2.6,0,2,2,0,0,0,.6-1.6,2,2,0,0,0-.3-1.1,1.6,1.6,0,0,0-.6-.8,1.7,1.7,0,0,0-1-.3,1.8,1.8,0,0,0-1.3.6C56.8,35.3,56.7,35.9,56.7,36.7Z"/><path class="cls-4" d="M61.8,37.6h.7a1.4,1.4,0,0,0,.2.7,1,1,0,0,0,.5.4l.9.2h.7a.8.8,0,0,0,.4-.4.8.8,0,0,0,.2-.4.7.7,0,0,0-.1-.5l-.5-.3-1-.3-1-.3a1,1,0,0,1-.6-.5,1.4,1.4,0,0,1-.2-.7,1.9,1.9,0,0,1,.2-.7,1.3,1.3,0,0,1,.7-.6l1-.2L65,34a2,2,0,0,1,.7.6,1.9,1.9,0,0,1,.2.8h-.7a1.1,1.1,0,0,0-.3-.8l-1-.2c-.4,0-.7,0-.9.2a.9.9,0,0,0-.3.6c0,.2.1.3.2.5l1.1.3,1.2.4a1.8,1.8,0,0,1,.7.5,2.4,2.4,0,0,1,.2.8,1.1,1.1,0,0,1-.3.8,1.1,1.1,0,0,1-.7.6l-1,.2-1.2-.2a1.7,1.7,0,0,1-.8-.6A1.9,1.9,0,0,1,61.8,37.6Z"/><path class="cls-4" d="M68.5,39.3V34.6H66.7v-.7H71v.7H69.2v4.7Z"/><path class="cls-4" d="M71.8,39.3V33.9h.8v5.4Z"/><path class="cls-4" d="M77.9,38.7a3.1,3.1,0,0,0,1,.5l-.3.5-1.1-.6a3.1,3.1,0,0,1-1.3.3,3.2,3.2,0,0,1-1.4-.3,2.8,2.8,0,0,1-.9-1,3.7,3.7,0,0,1-.3-1.5,3.2,3.2,0,0,1,.3-1.4,1.8,1.8,0,0,1,.9-1,2.3,2.3,0,0,1,1.4-.4,2.8,2.8,0,0,1,1.3.4,2.2,2.2,0,0,1,.9,1,3.2,3.2,0,0,1,.3,1.4,2.2,2.2,0,0,1-.2,1.2A1.5,1.5,0,0,1,77.9,38.7Zm-1.5-.9,1,.5a2.1,2.1,0,0,0,.6-1.7,3.6,3.6,0,0,0-.2-1.1,2.7,2.7,0,0,0-.7-.8,1.4,1.4,0,0,0-.9-.3,1.5,1.5,0,0,0-1.3.6,2.1,2.1,0,0,0-.6,1.6,2.3,2.3,0,0,0,.5,1.6,1.8,1.8,0,0,0,1.4.6h.7l-.7-.4Z"/><path class="cls-4" d="M83.3,33.9H84V37a3.9,3.9,0,0,1-.2,1.3,1.1,1.1,0,0,1-.7.8,2.1,2.1,0,0,1-1.2.3l-1.3-.2a1.6,1.6,0,0,1-.6-.8,2.6,2.6,0,0,1-.3-1.4V33.9h.8V37a3.1,3.1,0,0,0,.1,1.1,1,1,0,0,0,.4.5l.8.2a1.2,1.2,0,0,0,1.1-.4c.3-.2.4-.7.4-1.4Z"/><path class="cls-4" d="M85.2,39.3V33.9h3.9v.7H85.9v1.6h3v.6h-3v1.9h3.3v.6Z"/><path class="cls-4" d="M91.4,39.3l2-5.4h.8l2.2,5.4h-.8L95,37.7H92.7l-.6,1.6Zm1.5-2.2h1.9l-.6-1.5a7.6,7.6,0,0,1-.4-1.1,3.8,3.8,0,0,1-.3,1Z"/><path class="cls-4" d="M100,39.3V34.6H98.2v-.7h4.3v.7h-1.8v4.7Z"/><path class="cls-4" d="M103.3,39.3V33.9h.8v5.4Z"/><path class="cls-4" d="M105.4,39.3V33.9h3.9v.7h-3.2v1.6h3v.6h-3v1.9h3.3v.6Z"/><path class="cls-4" d="M110.4,39.3V33.9h1.1l1.2,3.8c.2.4.2.7.3.8s.1-.4.3-.8l1.3-3.8h.9v5.4h-.7V34.8l-1.5,4.5h-.7l-1.5-4.6v4.6Z"/><path class="cls-4" d="M116.7,39.3V33.9h2.9l.6.2c.2.2.4.3.5.6a1.5,1.5,0,0,1,.1.7,1.9,1.9,0,0,1-.4,1.2,2.2,2.2,0,0,1-1.6.4h-1.4v2.2Zm.7-2.8h1.4a1.3,1.3,0,0,0,1-.3.8.8,0,0,0,.3-.7,1.4,1.4,0,0,0-.2-.6l-.4-.3h-2.1Z"/><path class="cls-4" d="M121.5,36.7a2.9,2.9,0,0,1,.8-2.1,2.3,2.3,0,0,1,1.8-.8,3.3,3.3,0,0,1,1.4.4,2.2,2.2,0,0,1,.9,1,3.2,3.2,0,0,1,.3,1.4,3.3,3.3,0,0,1-.3,1.5,2.4,2.4,0,0,1-1,1,2.8,2.8,0,0,1-1.3.3,2,2,0,0,1-1.3-.4,1.8,1.8,0,0,1-.9-1A2,2,0,0,1,121.5,36.7Zm.8,0a2.1,2.1,0,0,0,.5,1.5,1.8,1.8,0,0,0,1.3.6,1.5,1.5,0,0,0,1.3-.6,2,2,0,0,0,.6-1.6,2,2,0,0,0-.3-1.1,1.6,1.6,0,0,0-.6-.8,1.7,1.7,0,0,0-1-.3,1.8,1.8,0,0,0-1.3.6A2.5,2.5,0,0,0,122.3,36.7Z"/><path class="cls-5" d="M13.9,18.2l.3-.2c5-4,8.6-7.7,9.3-11.5H3.1c.8,4.8,5.3,8.3,10.3,12.1l1.2.9.3-.2Z"/><path class="cls-4" d="M15.2,19.3l-.8-1.1c7-5.5,11.2-10.5,8.9-16.4l1.2-.5C27.3,8.7,21.2,14.5,15.2,19.3Z"/><path class="cls-4" d="M2.2,38.3C.2,29.8,5.5,25.5,11.1,21l.8,1.1C6.4,26.5,1.7,30.3,3.5,38Z"/><path class="cls-4" d="M23.6,4.5H7a.9.9,0,0,0-.8-.4.9.9,0,0,0-.9.8.9.9,0,0,0,.9.9c.4,0,.7-.1.8-.5H23.6Z"/><path class="cls-4" d="M23.1,7.9H8.5a.8.8,0,0,0-.8-.5.8.8,0,0,0-.9.8.9.9,0,0,0,.9.9c.4,0,.7,0,.8-.4H22.7Z"/><path class="cls-4" d="M24.8,1.3l.3,1h1a.5.5,0,0,0,.5-.5V.6c0-.2-.3-.6-.5-.6H.3C.1,0,0,.4,0,.6V1.8c0,.3.1.5.3.5h.8C-.7,10.6,5.7,15.7,12,20.4s12.2,9.2,11.1,17.2H3.7a.8.8,0,0,0,.1.4v.3L2,38.7v-.3c-.1-.3-.1-.5-.2-.8H.3c-.2,0-.3.2-.3.5V39c0,.3.1.3.3.3H26.1c.2,0,.5,0,.5-.3v-.9a.5.5,0,0,0-.5-.5h-.7c1.1-9.1-5.9-14.3-12-19-1.6-1.2-3.1-2.3-4.5-3.5h4.3a.8.8,0,0,0,.8.5.9.9,0,0,0,0-1.8c-.4,0-.7.1-.8.4H8.1A15.2,15.2,0,0,1,5.9,12H16.7a.7.7,0,0,0,.8.5,1,1,0,0,0,.9-1,.9.9,0,0,0-.9-.8.8.8,0,0,0-.8.6H5.3a10.1,10.1,0,0,1-1.9-9H23.1c0-.1-.1-.2-.1-.4V1.7L24.7,1Z"/><path class="cls-5" d="M13.4,29.9c.1-.8.1-2.5.1-4.5s0-3-.1-3.9l-.4-.3c0,.9-.1,2.4-.1,4.2a42.4,42.4,0,0,0,.2,4.5c-.7.5-6,4.7-6.5,7.7H19.8C19.4,34.6,14.1,30.5,13.4,29.9Z"/></g></g></svg>